inDegrees=yes
name=ik_S40_A03_T02
DataType=double
version=3
OpenSimVersion=4.3-2021-08-27-4bc7ad9
endheader
time	pelvis_tilt	pelvis_list	pelvis_rotation	pelvis_tx	pelvis_ty	pelvis_tz	hip_flexion_r	hip_adduction_r	hip_rotation_r	knee_angle_r	knee_angle_r_beta	ankle_angle_r	subtalar_angle_r	mtp_angle_r	hip_flexion_l	hip_adduction_l	hip_rotation_l	knee_angle_l	knee_angle_l_beta	ankle_angle_l	subtalar_angle_l	mtp_angle_l	lumbar_extension	lumbar_bending	lumbar_rotation	arm_flex_r	arm_add_r	arm_rot_r	elbow_flex_r	pro_sup_r	wrist_flex_r	wrist_dev_r	arm_flex_l	arm_add_l	arm_rot_l	elbow_flex_l	pro_sup_l	wrist_flex_l	wrist_dev_l
7.499999999999928	-0.9365969607738382	-5.362667747758363	112.1547419042491	0	0.9399999999999999	0	35.81260542295474	-11.22216078352042	-6.211127031557493	42.40889096864915	0.7401747795222149	0	0	0	9.274279877394667	11.830711054194	7.619904498815268	9.996508271935271	0.1744719830481191	0	0	0	0	0	0	32.94543419867627	-32.94543419867627	4.468408023398084	77.51500052405704	85.53159222622931	0	0	32.94543419867627	-32.94543419867627	4.468408023398084	77.51500052405704	85.53159222612976	0	0
7.519999999999928	-1.346473377947818	-5.246372356910157	112.2070503498301	0	0.9399999999999999	0	36.52275686237737	-11.00869973758486	-5.350546694169457	36.81404200496747	0.642526243954177	0	0	0	7.660753522463459	11.84882407260721	7.642835125406879	9.92244308194074	0.1731793016215994	0	0	0	0	0	0	32.99228369085607	-32.99228369085607	4.471953626426838	77.56508160710455	85.52804662337776	0	0	32.99228369085607	-32.99228369085607	4.471953626426838	77.56508160710455	85.52804662327885	0	0
7.539999999999927	-1.342045680695757	-5.244602032161808	112.2023682606946	0	0.9399999999999999	0	37.05567644719541	-10.94850921107646	-4.933051597455479	30.36144706662218	0.5299072169825312	0	0	0	6.363090958138391	11.59772709059701	7.671741313804452	9.851970187288552	0.1719493175765076	0	0	0	0	0	0	33.00172065084816	-33.00172065084816	4.472775005176936	77.57671473862533	85.52722524466958	0	0	33.00172065084816	-33.00172065084816	4.472775005176936	77.57671473862533	85.52722524457087	0	0
7.559999999999927	-1.811867619624179	-5.047291763773428	112.2822322335379	0	0.9399999999999999	0	36.30303010242852	-10.72142783856077	-6.540940295923378	23.90267139951898	0.417180315943887	0	0	0	4.713248165010435	11.72844894437707	8.380154729038894	9.780767957357625	0.1707066042294509	0	0	0	0	0	0	33.00104728968603	-33.00104728968603	4.472812183757302	77.57726453762389	85.52718806609174	0	0	33.00104728968603	-33.00104728968603	4.472812183757302	77.57726453762389	85.52718806599309	0	0
7.579999999999926	-1.995965793380325	-5.053954691838534	112.1705441667876	0	0.9399999999999999	0	35.15680254735646	-9.620130561795113	-9.258230587304894	17.34321782867912	0.3026962540010324	0	0	0	3.375620541071409	11.57615593503298	9.043687834879877	9.673609152176532	0.1688363302565377	0	0	0	0	0	0	33.00610788342883	-33.00610788342883	4.473273270590981	77.58379942571092	85.52672697928173	0	0	33.00610788342883	-33.00610788342883	4.473273270590981	77.58379942571092	85.52672697918319	0	0
7.599999999999926	-2.153615961565357	-4.977335871149899	112.056533146327	0	0.9399999999999999	0	33.69518567683911	-8.461690674468189	-11.29349284593583	13.63111212017897	0.2379077872056281	0	0	0	3.230494901928223	11.69968126817579	8.854552452231248	10.87525699156608	0.1898090415033612	0	0	0	0	0	0	33.01671797813835	-33.01671797813835	4.474158689114441	77.59632885482748	85.5258415608032	0	0	33.01671797813835	-33.01671797813835	4.474158689114441	77.59632885482748	85.52584156070485	0	0
7.619999999999925	-2.334458711604741	-4.706055873470533	111.9488048372646	0	0.9399999999999999	0	32.26643984066428	-7.28381499520541	-12.42385958427004	3.943896707519764	0.06883398290478368	0	0	0	1.644984214906749	11.50497950371954	9.272893115945491	11.17874063124445	0.195105830241685	0	0	0	0	0	0	33.02334456122651	-33.02334456122651	4.474737184814195	77.6045222702501	85.52526306513306	0	0	33.02334456122651	-33.02334456122651	4.474737184814195	77.6045222702501	85.52526306503485	0	0
7.639999999999925	-2.477511936838286	-4.421306351667988	111.7949840000164	0	0.9399999999999999	0	31.34020107156641	-6.086710205038472	-12.87725779668756	1.714306524073847	0.02992029323350806	0	0	0	-1.378493169715996	11.03824824635011	8.448746708034607	11.25806380366752	0.1964902807735947	0	0	0	0	0	0	32.99416765406603	-32.99416765406603	4.472590755510306	77.57422129125567	85.52740949433017	0	0	32.99416765406603	-32.99416765406603	4.472590755510306	77.57422129125567	85.52740949423151	0	0
7.659999999999925	-2.651774360170776	-4.095558125301745	111.6893306154318	0	0.9399999999999999	0	30.92278369586662	-5.961333542867176	-13.00341759965927	1.797642611633518	0.03137478234715461	0	0	0	-2.787874893778917	10.99190938082845	8.021977409228155	10.52227609021547	0.1836483625781357	0	0	0	0	0	0	32.99714888596591	-32.99714888596591	4.472851966010902	77.57792125522215	85.52714828384291	0	0	32.99714888596591	-32.99714888596591	4.472851966010902	77.57792125522215	85.52714828374425	0	0
7.679999999999924	-2.762992362489866	-3.848192597311312	111.6110897672335	0	0.9399999999999999	0	29.80335381861154	-5.209678427044384	-13.64844804057063	2.800319794928624	0.04887480053027689	0	0	0	-4.171677154154752	10.78895938914756	8.02734693368374	11.73314455136593	0.2047820040337684	0	0	0	0	0	0	33.04730565506878	-33.04730565506878	4.476601517470494	77.63086988888782	85.5233987325704	0	0	33.04730565506878	-33.04730565506878	4.476601517470494	77.63086988888782	85.52339873247244	0	0
7.699999999999924	-3.058292185354187	-3.314133622401313	111.8660680778746	0	0.9399999999999999	0	27.79604579173913	-4.646789532360918	-14.91749877126539	1.976650640186362	0.03449906183290576	0	0	0	-5.741785433398666	10.74815317153329	7.932976741498476	12.8828223078803	0.2248476662218858	0	0	0	0	0	0	33.05063724963122	-33.05063724963122	4.476892408217212	77.63498974011418	85.52310784183854	0	0	33.05063724963122	-33.05063724963122	4.476892408217212	77.63498974011418	85.52310784174065	0	0
7.719999999999923	-3.041463832263384	-3.129698948842199	111.9517879620192	0	0.9399999999999999	0	26.25251152083855	-3.772221468576845	-14.97167171098953	2.673163848878374	0.04665551060821175	0	0	0	-6.460949606588762	10.60938804948177	6.593268048822802	12.72517687294879	0.2220962343315925	0	0	0	0	0	0	33.07348733149198	-33.07348733149198	4.47862375431535	77.65944529727842	85.52137649582701	0	0	33.07348733149198	-33.07348733149198	4.47862375431535	77.65944529727842	85.52137649572946	0	0
7.739999999999923	-2.803239042792964	-2.861302055638627	112.0158547321383	0	0.9399999999999999	0	25.1568856149691	-4.107355525215914	-14.2347477379461	6.29352735070817	0.1098427738341734	0	0	0	-7.092149092389875	9.337073371709954	3.025946816527443	16.94128206833958	0.2956811516016006	0	0	0	0	0	0	33.14707855608635	-33.14707855608635	4.4841116788202	77.73693804094634	85.51588857159589	0	0	33.14707855608635	-33.14707855608635	4.4841116788202	77.73693804094634	85.51588857149929	0	0
7.759999999999923	-2.372456626046214	-3.147100893497225	111.7710577766547	0	0.9399999999999999	0	26.10746590227089	-4.626653328476774	-10.5648133367448	7.099971347099208	0.1239178768041383	0	0	0	-5.954341507484813	8.716769432916228	0.06764714187184181	17.8885289605509	0.3122137286999721	0	0	0	0	0	0	33.17783567922542	-33.17783567922542	4.486446910023256	77.7699241893982	85.5135533405096	0	0	33.17783567922542	-33.17783567922542	4.486446910023256	77.7699241893982	85.51355334041344	0	0
7.779999999999922	-1.813212706231436	-3.0758376425603	111.3398574414987	0	0.9399999999999999	0	27.72958058413449	-4.566170258526033	-5.767920729877136	9.417955160059714	0.1643743263482316	0	0	0	-4.239812429590452	7.051257956332138	-2.512139251640234	24.78612619360841	0.4325995108932763	0	0	0	0	0	0	33.24299499849792	-33.24299499849792	4.491325303499916	77.83881420601277	85.50867494727632	0	0	33.24299499849792	-33.24299499849792	4.491325303499916	77.83881420601277	85.50867494718106	0	0
7.799999999999922	-0.9701244881040951	-3.092221066128266	111.1136607716662	0	0.9399999999999999	0	25.37434342056379	-2.966652447923606	-10.79560658252618	9.961459369261012	0.1738602642972423	0	0	0	-1.360042270436153	5.379098066394156	-4.380108780863307	30.23603772256963	0.5277184110160478	0	0	0	0	0	0	33.34254869647825	-33.34254869647825	4.498660590161241	77.94236605917951	85.50133966097997	0	0	33.34254869647825	-33.34254869647825	4.498660590161241	77.94236605917951	85.5013396608861	0	0
7.819999999999921	-0.9629466625839148	-3.094404533619406	111.1219862659119	0	0.9399999999999999	0	23.05804938325037	-2.818429793729804	-13.19031298850072	10.81434490631973	0.188745925061557	0	0	0	5.878951942691692	4.424594075911989	-2.466450127505946	41.17959312270885	0.7187194846228827	0	0	0	0	0	0	33.50598282369562	-33.50598282369562	4.510576543140425	78.11054749242254	85.48942370859247	0	0	33.50598282369562	-33.50598282369562	4.510576543140425	78.11054749242254	85.48942370850085	0	0
7.839999999999921	-0.603708730680378	-3.102981461235256	111.1020481527004	0	0.9399999999999999	0	21.29165453509512	-2.516909126581158	-14.98117365441978	9.636460225962303	0.1681879591805189	0	0	0	8.388043315204078	3.119631925531119	-2.667786216079887	46.70146041616748	0.8150942497519237	0	0	0	0	0	0	33.51108917917143	-33.51108917917143	4.511010131415695	78.11668251877417	85.48899012033927	0	0	33.51108917917143	-33.51108917917143	4.511010131415695	78.11668251877417	85.48899012024773	0	0
7.85999999999992	0.642610675404736	-2.48444247029696	111.0998678263981	0	0.9399999999999999	0	21.01012899893572	-1.554539931978943	-15.51038298632765	10.28780770120139	0.1795561171979933	0	0	0	8.130696181169773	0.9846861508208182	-2.719164526495203	47.89104858348225	0.8358564800143317	0	0	0	0	0	0	33.51618341245484	-33.51618341245484	4.511440731955821	78.12277481563176	85.48855951982094	0	0	33.51618341245484	-33.51618341245484	4.511440731955821	78.12277481563176	85.48855951972948	0	0
7.87999999999992	0.9694794233358061	-2.763788057439455	110.798707577279	0	0.9399999999999999	0	20.54109764445695	-0.8139752339739186	-13.39423979810048	11.44842942701061	0.199812787683543	0	0	0	10.98902577412339	0.9099639628953108	-4.896344438461218	52.43274924192796	0.9151241101442037	0	0	0	0	0	0	33.56139856532936	-33.56139856532936	4.51477287174743	78.1698131696028	85.48522738019514	0	0	33.56139856532936	-33.56139856532936	4.51477287174743	78.1698131696028	85.48522738010431	0	0
7.89999999999992	1.025344289734388	-3.05336364503029	110.7042858706552	0	0.9399999999999999	0	19.61167103377679	-0.4151555993574022	-12.11262553464874	11.72441424268509	0.2046296314025723	0	0	0	13.91976125496325	1.885763594490275	-6.518592064500536	56.34262339901979	0.9833642875240941	0	0	0	0	0	0	33.60877666419688	-33.60877666419688	4.518212699300017	78.21835871532167	85.48178755281324	0	0	33.60877666419688	-33.60877666419688	4.518212699300017	78.21835871532167	85.48178755272309	0	0
7.919999999999919	0.9872320310034857	-3.335440340324408	110.4348893214934	0	0.9399999999999999	0	18.25250772513571	-0.05030142001614755	-12.19416395997281	10.41559217894943	0.1817863770676379	0	0	0	16.50086580104509	0.7102242483002015	-6.754885842008764	54.14108938415968	0.9449402703701356	0	0	0	0	0	0	33.67031582111356	-33.67031582111356	4.522626277288749	78.28063215421234	85.47737397504298	0	0	33.67031582111356	-33.67031582111356	4.522626277288749	78.28063215421234	85.47737397495368	0	0
7.939999999999919	0.7739966424152176	-3.099243454309721	110.1886561796732	0	0.9399999999999999	0	16.45616696154259	0.3890082947230321	-12.17516302919395	9.519877572088756	0.1661532080197126	0	0	0	19.13687441599504	1.6968287020624	-4.239638170154043	56.06656547830219	0.9785461678813625	0	0	0	0	0	0	33.69739352192565	-33.69739352192565	4.524594345452672	78.30840716133281	85.47540590697668	0	0	33.69739352192565	-33.69739352192565	4.524594345452672	78.30840716133281	85.4754059068878	0	0
7.959999999999918	0.6519008724666185	-2.987412407901229	109.9941126566171	0	0.9399999999999999	0	15.00236401406223	0.6771772206510328	-11.26652052808972	8.642319615646668	0.1508369323027252	0	0	0	21.98299978054378	3.436812431486418	-1.310462373515654	58.74560645164602	1.025304253662046	0	0	0	0	0	0	33.73203146013217	-33.73203146013217	4.527121282204913	78.34407130526954	85.47287897034987	0	0	33.73203146013217	-33.73203146013217	4.527121282204913	78.34407130526954	85.47287897026156	0	0
